<svg width="307" height="298" viewBox="0 0 307 298" fill="none" xmlns="http://www.w3.org/2000/svg">
<path d="M67.3984 152.025L63.8099 150.64L63.5182 143.104L66.9922 141.468L66.9349 139.932L53.3359 146.426L53.3984 148.067L67.4557 153.51L67.3984 152.025ZM62.2161 143.718L62.4609 150.145L54.8724 147.218L62.2161 143.718Z" fill="black"/>
<path d="M54.082 128.917L67.7279 131.203L68.5768 126.136C69.0143 123.552 68.2747 121.12 65.6445 120.677C64.5977 120.5 62.707 120.865 61.8477 122.802C61.3164 120.74 59.6862 120.307 59.0768 120.203C56.8424 119.828 55.3216 121.526 54.9049 124.021L54.082 128.917ZM60.3841 128.521L55.6289 127.724L56.1914 124.359C56.457 122.792 57.332 121.401 58.9883 121.677C60.332 121.901 61.3112 123.016 60.931 125.261L60.3841 128.521ZM66.6602 129.573L61.6549 128.734L62.2331 125.302C62.4987 123.719 63.3581 121.802 65.2904 122.125C67.2435 122.453 67.5247 124.396 67.2799 125.88L66.6602 129.573Z" fill="black"/>
<path d="M71.8724 112.335L69.1276 109.638L71.862 102.606L75.7005 102.486L76.2526 101.054L61.1953 101.611L60.6016 103.143L71.3359 113.721L71.8724 112.335ZM70.4193 102.653L68.0911 108.648L62.2891 102.945L70.4193 102.653Z" fill="black"/>
<path d="M83.7613 88.5172C85.6311 85.6839 85.0009 82.7307 83.652 80.9495L82.4176 81.6995C83.7093 83.4651 84.0426 85.5901 82.6416 87.7151C80.9176 90.3245 77.6155 90.8974 74.8707 89.0849C72.0843 87.2463 71.5322 83.913 73.1468 81.4651C74.7353 79.0641 77.0061 78.8297 78.7353 79.2932L78.9541 77.8713C76.8395 77.2568 73.8863 77.8453 72.0166 80.6786C69.9332 83.8349 70.5999 88.0849 74.1103 90.4026C77.5895 92.6995 81.6572 91.6995 83.7613 88.5172Z" fill="black"/>
<path d="M97.6245 62.1687C94.8954 59.3249 90.6245 59.1582 87.7704 61.8926C84.8693 64.6687 84.8902 68.9812 87.6402 71.8509C90.3693 74.6999 94.6402 74.8666 97.4943 72.127C100.395 69.3509 100.375 65.0384 97.6245 62.1687ZM96.5985 63.2728C98.7391 65.502 98.8902 68.9082 96.5933 71.1062C94.2704 73.3301 90.8277 73.0072 88.6662 70.752C86.5256 68.5176 86.3745 65.1166 88.6714 62.9134C90.9943 60.6895 94.4475 61.028 96.5985 63.2728Z" fill="black"/>
<path d="M121.972 54.7227L119.41 48.9415L126.613 45.7488L129.18 51.53L130.503 50.9415L124.899 38.2957L123.571 38.8842L126.05 44.4727L118.847 47.6654L116.368 42.0769L115.045 42.6654L120.649 55.3113L121.972 54.7227Z" fill="black"/>
<path d="M146.462 33.7336L146.175 32.4211L137.717 34.2649L140.654 47.7805L149.186 45.9264L148.899 44.6139L141.785 46.1607L140.717 41.2597L147.16 39.8586L146.873 38.5461L140.436 39.9472L139.415 35.2649L146.462 33.7336Z" fill="black"/>
<path d="M160.641 44.8103L159.87 30.9978L158.422 31.0759L159.193 44.8884L160.641 44.8103Z" fill="black"/>
<path d="M173.167 43.6249L174.359 31.2083L172.917 31.0676L171.594 44.8385L179.562 45.6041L179.693 44.2499L173.167 43.6249Z" fill="black"/>
<path d="M192.16 48.5583C194.832 49.3135 196.947 48.001 197.499 46.0426C197.749 45.1572 197.603 44.3083 197.212 43.5374C196.707 42.5322 195.665 41.6728 194.337 40.9124C192.478 39.8343 191.832 38.9333 192.171 37.7301C192.566 36.3343 194.134 35.8395 195.566 36.2458C197.332 36.7458 197.879 38.001 198.009 39.2301L199.384 38.902C199.238 37.152 198.181 35.5687 195.967 34.9437C193.759 34.3187 191.4 35.126 190.759 37.402C190.233 39.2562 191.145 40.7822 193.697 42.2145C195.535 43.251 196.436 44.3499 196.04 45.7405C195.65 47.1364 194.098 47.6885 192.53 47.251C190.712 46.7353 190.051 45.4437 189.858 43.7197L188.473 44.0114C188.665 46.251 189.832 47.902 192.16 48.5583Z" fill="black"/>
<path d="M220.956 45.4534L219.664 44.7971L215.789 52.4013C214.617 54.6982 212.768 55.443 210.643 54.3596C208.742 53.3857 207.784 51.6096 209.154 48.9169L212.992 41.3909L211.701 40.7346L207.831 48.3232C206.346 51.2346 206.987 54.0211 209.977 55.5471C212.909 57.0367 215.539 56.0784 217.128 52.9638L220.956 45.4534Z" fill="black"/>
<path d="M225.415 63.4231L233.107 53.6002L231.967 52.7043L223.436 63.6002L229.738 68.5325L230.576 67.4648L225.415 63.4231Z" fill="black"/>
<path d="M237.467 76.1463L247.546 66.6619L246.551 65.6099L236.473 75.089L237.467 76.1463Z" fill="black"/>
<path d="M250.678 93.7958L262.246 86.2125L261.46 85.0146L251.798 91.3531L256.986 78.1864L256.064 76.7854L244.496 84.3687L245.277 85.5667L255.137 79.1031L249.824 92.4989L250.678 93.7958Z" fill="black"/>
<path d="M268.365 98.302L255.428 103.213L256.891 107.062C258.329 110.844 262.126 112.88 265.975 111.417C269.626 110.031 271.355 106.182 269.824 102.151L268.365 98.302ZM257.214 104.083L267.605 100.141L268.527 102.568C269.808 105.937 268.381 108.901 265.407 110.026C262.381 111.177 259.386 109.802 258.141 106.531L257.214 104.083Z" fill="black"/>
<path d="M101.963 212.822L93.4004 223.692L96.6348 226.239C99.8171 228.744 104.119 228.536 106.666 225.301C109.083 222.233 108.588 218.036 105.197 215.369L101.963 212.822ZM95.3848 223.52L102.26 214.786L104.301 216.395C107.135 218.624 107.432 221.9 105.463 224.395C103.463 226.937 100.187 227.301 97.4368 225.135L95.3848 223.52Z" fill="black"/>
<path d="M126.171 229.866L126.775 228.663L119.041 224.778L112.822 237.137L120.624 241.059L121.229 239.856L114.723 236.59L116.979 232.106L122.864 235.064L123.468 233.866L117.577 230.903L119.729 226.627L126.171 229.866Z" fill="black"/>
<path d="M135.028 240.463L137.752 241.224L140.179 247.713L141.882 248.187L139.335 241.406C141.398 241.708 143.419 240.896 144.054 238.614C144.632 236.536 143.71 234.338 140.455 233.427L135.846 232.146L132.127 245.468L133.523 245.859L135.028 240.463ZM135.382 239.187L136.877 233.843L140.007 234.718C142.544 235.422 142.992 236.963 142.627 238.271C142.252 239.614 140.898 240.724 138.481 240.052L135.382 239.187Z" fill="black"/>
<path d="M166.827 250.892L168.254 250.959L168.9 237.136L166.816 237.043L161.145 248.647L156.53 236.558L154.483 236.465L153.832 250.282L155.264 250.35L155.816 238.595L160.363 250.59L161.671 250.652L167.363 239.048H167.379L166.827 250.892Z" fill="black"/>
<path d="M181.23 249.852L182.084 246.102L189.501 244.727L191.62 247.93L193.131 247.649L184.74 235.133L183.126 235.43L179.771 250.123L181.23 249.852ZM188.704 243.529L182.381 244.701L184.183 236.764L188.704 243.529Z" fill="black"/>
<path d="M211.158 225.946L209.893 226.65L216.606 238.743L217.877 238.04L214.643 232.217L214.731 232.165L223.637 234.842L225.429 233.847L215.721 230.993L218.434 221.905L216.658 222.894L214.205 231.249L214.127 231.29L211.158 225.946Z" fill="black"/>
<path d="M234.723 225.395L226.781 215.775L225.666 216.697L234.473 227.369L240.645 222.27L239.781 221.218L234.723 225.395Z" fill="black"/>
<path d="M237.366 204.092L238.251 203.102L237.491 199.388L236.371 200.644L237.366 204.092ZM239.246 203.894L249.569 213.112L248.6 214.191L238.283 204.977L239.246 203.894Z" fill="black"/>
<path d="M263.649 193.332L251.883 186.051L251.128 187.269L260.956 193.347L246.831 194.207L245.951 195.639L257.717 202.92L258.467 201.702L248.446 195.498L262.831 194.655L263.649 193.332Z" fill="black"/>
<path d="M269.671 180.156L256.822 175.031L256.285 176.375L269.134 181.505L269.671 180.156Z" fill="black"/>
<path d="M260.56 163.438L260.242 164.849L273.747 167.87L274.06 166.459L267.56 165L267.586 164.902L275.503 160.027L275.951 158.027L267.362 163.381L262.378 155.313L261.935 157.297L266.544 164.683L266.529 164.771L260.56 163.438Z" fill="black"/>
<path d="M162.76 9.64055C83.3587 9.64055 18.7649 74.2395 18.7649 153.651C18.7649 182.219 27.1556 208.875 41.5931 231.333C28.1451 214.547 18.6451 194.557 14.2024 173.641C8.52535 146.495 10.7493 117.74 20.9889 91.9478C26.1087 79.052 33.0826 66.901 41.5931 55.8541C50.3535 44.9322 60.7806 35.5572 72.1347 27.3489C95.1451 11.2447 123.213 2.4843 151.838 1.43743V0.447845C144.624 -0.0469466 137.343 -0.166738 130.124 0.817637L119.265 2.05201L108.718 4.27076C94.6504 8.03639 80.8326 13.4687 68.3691 21.427C55.8431 29.2603 44.6764 39.1353 34.9941 50.302C25.5514 61.7187 17.7181 74.4895 11.7337 88.1249C5.9941 101.885 2.72847 116.568 1.3066 131.375L0.754517 142.604C0.811809 146.307 1.12431 150.073 1.3066 153.776C1.4316 155.625 1.4316 157.474 1.73889 159.328L2.60347 164.818C3.28056 168.458 3.53056 172.224 4.57743 175.802C11.3639 204.802 27.0358 231.578 49.0566 251.26C51.8951 253.667 54.4889 256.318 57.5097 258.479L66.4576 265.021C72.7493 268.844 78.9785 272.854 85.7649 275.755C86.567 276.187 87.3691 276.495 88.1712 276.865C109.952 290.13 135.489 297.724 162.76 297.724C242.161 297.724 306.755 233.12 306.755 153.713C306.755 74.2395 242.161 9.64055 162.76 9.64055ZM162.76 295.193C143.02 295.193 124.202 291.12 107.114 283.776L117.109 286.245C120.687 287.234 124.385 287.417 127.963 288.036L133.395 288.838C135.244 288.958 137.093 289.021 138.885 289.083C142.588 289.146 146.228 289.578 149.864 289.391L160.848 288.776C164.551 288.651 168.13 287.724 171.765 287.234L177.197 286.37C178.984 286.062 180.775 285.443 182.499 285.01C186.02 284.026 189.598 283.224 193.114 282.047L203.416 278.161C206.869 276.927 210.015 275.016 213.348 273.474C239.505 260.333 260.978 238.672 274.859 213.193C281.583 200.297 286.515 186.536 289.478 172.344C292.01 158.094 292.499 143.531 291.145 129.156L290.156 129.281C291.145 143.594 290.343 157.969 287.567 171.974C284.359 185.922 279.176 199.307 272.327 211.771C258.14 236.391 236.728 256.875 211.192 269.031C207.984 270.448 204.895 272.24 201.567 273.349L191.635 276.927C188.301 277.979 184.786 278.656 181.39 279.583C179.666 279.953 177.999 280.505 176.27 280.818L171.025 281.557C167.51 281.927 164.057 282.792 160.541 282.849L149.989 283.281C146.473 283.406 142.958 282.911 139.442 282.792C137.713 282.667 135.921 282.604 134.197 282.422L129.015 281.557C125.557 280.875 122.041 280.693 118.65 279.641L108.468 276.927C101.869 274.521 95.2076 272.365 88.9733 269.031C82.5566 266.193 76.6972 262.245 70.8379 258.542L62.4472 252.25C60.6556 250.891 58.9889 249.411 57.3899 247.87C34.9316 222.88 21.2337 189.807 21.2337 153.651C21.2337 75.5989 84.7181 12.1093 162.76 12.1093C240.801 12.1093 304.286 75.5989 304.286 153.651C304.286 231.703 240.801 295.193 162.76 295.193Z" fill="black"/>
<path d="M236.28 162.187C236.457 162.171 236.936 162.15 237.717 162.124C238.868 162.135 240.259 162.135 241.884 162.124C243.52 162.109 244.952 162.155 246.176 162.27C247.395 162.395 247.978 162.603 247.926 162.895C247.717 163.103 246.91 163.28 245.509 163.437C244.103 163.603 242.457 163.718 240.572 163.791C238.697 163.859 236.957 163.916 235.363 163.957C233.78 164.01 232.723 164.046 232.197 164.062C231.056 164.062 230.134 164.478 229.426 165.312C223.52 171.129 216.999 176.124 209.863 180.291C204.598 183.457 199.072 186.062 193.28 188.103C191.03 188.905 188.749 189.567 186.447 190.082C184.155 190.593 181.806 190.921 179.405 191.062C177.165 191.145 174.967 190.885 172.801 190.291C170.228 189.582 168.572 188.301 167.822 186.457C167.072 184.608 167.327 182.51 168.592 180.166C169.478 178.707 170.561 177.468 171.842 176.457C173.884 174.76 176.082 173.353 178.447 172.228C181.681 170.645 185.009 169.301 188.426 168.207C188.686 168.108 188.973 168.025 189.28 167.957C189.639 167.843 189.999 167.718 190.363 167.582C190.863 167.426 191.16 167.093 191.259 166.582C191.342 166.249 191.415 165.9 191.488 165.541C191.572 165.051 191.66 164.53 191.759 163.978C192.868 157.635 193.978 151.265 195.092 144.874C196.603 136.265 198.118 127.624 199.634 118.957C199.645 118.905 199.66 118.827 199.676 118.728C199.811 117.952 199.967 117.181 200.134 116.416C200.41 115.64 201.035 115.327 202.009 115.478C202.967 115.676 203.415 116.197 203.363 117.041C203.322 117.739 203.223 118.447 203.072 119.166C203.04 119.322 203.014 119.468 202.988 119.603C201.806 126.494 200.598 133.385 199.363 140.27C198.04 147.812 196.738 155.369 195.447 162.937C195.389 163.213 195.327 163.489 195.259 163.77C194.936 165.046 194.915 165.78 195.197 165.978C195.488 166.171 196.374 166.082 197.863 165.707C197.931 165.676 198.02 165.65 198.134 165.624C206.926 163.609 215.832 162.499 224.863 162.291C226.889 162.301 228.551 161.52 229.842 159.937C232.895 156.301 235.634 152.322 238.051 147.999C240.467 143.681 242.368 139.301 243.759 134.853C245.16 130.411 245.832 126.181 245.78 122.166C245.738 118.155 244.78 114.645 242.905 111.645C241.04 108.645 238.072 106.431 233.988 104.999C229.905 103.556 224.509 103.197 217.801 103.916C214.395 104.223 210.577 104.905 206.342 105.957C202.118 107.015 197.764 108.395 193.28 110.103C188.806 111.812 184.52 113.78 180.426 115.999C176.327 118.223 172.717 120.64 169.592 123.249C166.467 125.848 164.118 128.593 162.551 131.478C162.103 132.369 161.389 132.718 160.405 132.52C159.874 132.426 159.514 132.202 159.322 131.853C159.139 131.494 159.145 131.072 159.342 130.582C159.895 129.457 160.598 128.437 161.447 127.52C163.457 125.244 165.681 123.202 168.113 121.395C174.348 116.635 181.613 112.53 189.905 109.082C198.207 105.64 206.264 103.332 214.072 102.166C221.264 101.181 227.301 101.249 232.176 102.374C237.051 103.499 240.863 105.452 243.613 108.228C246.374 110.994 248.16 114.364 248.967 118.332C249.77 122.291 249.717 126.614 248.801 131.291C247.884 135.957 246.186 140.744 243.717 145.645C241.259 150.551 238.103 155.348 234.259 160.041C233.452 161.025 233.155 161.629 233.363 161.853C233.572 162.072 234.124 162.166 235.03 162.124C235.405 162.109 235.822 162.129 236.28 162.187ZM223.113 166.749C223.238 166.624 223.353 166.525 223.467 166.457C224.035 166.051 224.467 165.504 224.759 164.812C224.551 164.572 224.306 164.437 224.03 164.395C223.764 164.364 223.499 164.359 223.238 164.374C223.113 164.385 223.009 164.405 222.926 164.437C218.634 164.754 214.353 165.213 210.092 165.812C205.827 166.421 201.582 167.249 197.363 168.291C197.072 168.374 196.801 168.447 196.551 168.52C195.842 168.671 195.322 168.817 194.988 168.957C194.655 169.093 194.431 169.317 194.322 169.624C194.207 169.926 194.113 170.395 194.03 171.02C193.973 171.338 193.905 171.733 193.822 172.207C193.665 172.885 193.551 173.551 193.467 174.207C193.342 174.885 193.207 175.572 193.072 176.27C192.947 176.921 192.785 177.567 192.592 178.207C192.285 179.067 191.681 179.4 190.78 179.207C189.79 178.968 189.368 178.322 189.509 177.27C189.66 176.088 189.832 174.937 190.03 173.812C190.165 173.02 190.301 172.254 190.426 171.52C190.493 170.713 190.155 170.416 189.405 170.624C186.999 171.416 184.66 172.338 182.384 173.395C180.103 174.463 177.936 175.733 175.884 177.207C174.603 178.135 173.499 179.234 172.572 180.499C171.822 181.51 171.311 182.65 171.051 183.916C170.717 186.01 171.514 187.504 173.447 188.395C174.624 188.921 175.848 189.15 177.113 189.082C179.556 189.025 181.967 188.733 184.342 188.207C186.717 187.692 189.04 187.02 191.322 186.187C197.249 184.03 202.853 181.312 208.134 178.02C213.41 174.739 218.405 170.984 223.113 166.749Z" fill="black"/>
<path fill-rule="evenodd" clip-rule="evenodd" d="M153.994 89.9219V208.073H151.994V89.9219H153.994Z" fill="black"/>
<path d="M136.201 200.391C136.284 200.682 136.315 200.974 136.305 201.266C136.289 201.708 136.055 201.958 135.597 202.016C134.232 202.234 133.331 201.714 132.888 200.453C132.555 199.547 132.274 198.625 132.055 197.682C131.539 195.401 131.123 193.104 130.805 190.786C130.482 188.479 130.227 186.172 130.034 183.87C129.852 181.828 129.685 179.792 129.534 177.766C129.435 176.318 129.336 174.875 129.243 173.432C129.201 172.708 129.076 172.245 128.868 172.036C128.67 171.839 128.227 171.693 127.534 171.599C125.269 171.333 123.003 171.078 120.743 170.828C118.378 170.521 116.024 170.203 113.68 169.87C113.081 169.828 112.618 169.922 112.284 170.161C111.951 170.411 111.664 170.776 111.43 171.266C109.024 176.443 106.378 181.521 103.493 186.495C101.545 189.745 99.4821 192.911 97.305 195.995C95.1384 199.078 92.7477 202.005 90.1384 204.786C87.805 207.255 85.18 209.359 82.2634 211.099C79.3571 212.875 76.2477 213.849 72.93 214.016C68.3727 214.266 64.305 212.984 60.7217 210.182C58.5967 208.432 56.805 206.417 55.3467 204.141C50.4561 196.474 47.5915 188.12 46.7425 179.078C46.5759 177.422 46.6384 175.771 46.93 174.12L46.9509 174.016C47.0081 173.682 47.0863 173.333 47.18 172.974C48.1071 169.224 50.4144 166.698 54.0967 165.391C55.4977 164.948 56.9144 164.641 58.3467 164.474C59.7738 164.297 61.2269 164.234 62.7009 164.286C67.0446 164.37 71.4092 164.552 75.7842 164.828C82.7113 165.276 89.6696 165.781 96.6592 166.349C99.0863 166.557 101.503 166.786 103.909 167.036C105.076 167.177 106.227 167.302 107.368 167.411C108.144 167.526 108.68 167.51 108.972 167.37C109.274 167.234 109.576 166.818 109.868 166.12C110.56 164.651 111.248 163.156 111.93 161.641C116.847 150.031 121.206 138.219 125.013 126.203C127.472 118.719 129.701 111.182 131.701 103.599C132.295 101.214 132.836 98.8021 133.326 96.3698C133.56 95.276 133.81 94.1979 134.076 93.1406C134.102 92.9739 134.128 92.8073 134.159 92.6406C134.227 92.3229 134.295 92.0156 134.368 91.7239C134.503 91.0989 134.732 90.6927 135.055 90.4948C135.373 90.2864 135.847 90.2396 136.472 90.3489C137.107 90.4219 137.545 90.6094 137.784 90.9114C138.019 91.2187 138.076 91.6979 137.951 92.3489C137.56 94.5469 137.159 96.8073 136.743 99.1406C136.576 100.13 136.394 101.141 136.201 102.182C135.227 108.49 134.43 114.995 133.805 121.703C133.107 129.219 132.618 136.745 132.326 144.286C132.019 152.151 132.045 159.995 132.409 167.828C132.42 168.219 132.44 168.578 132.472 168.911C132.513 169.135 132.545 169.365 132.576 169.599C132.659 170.25 133.034 170.599 133.701 170.641C135.118 170.875 136.555 171.104 138.013 171.328C138.706 171.38 139.326 171.63 139.868 172.078C140.06 172.286 140.128 172.557 140.076 172.891C140.019 173.026 139.92 173.125 139.784 173.182C139.659 173.25 139.534 173.276 139.409 173.266C138.701 173.182 137.982 173.068 137.263 172.932C136.93 172.901 136.602 172.859 136.284 172.807C136.086 172.776 135.909 172.745 135.743 172.703C135.144 172.604 134.56 172.521 133.993 172.453C133.118 172.37 132.701 172.771 132.743 173.661C132.784 174.229 132.836 174.818 132.909 175.432C132.993 177.734 133.159 180.026 133.409 182.307C133.67 185.349 134.013 188.38 134.43 191.411C134.847 194.437 135.435 197.432 136.201 200.391ZM107.576 170.974C107.894 170.333 107.998 169.891 107.888 169.641C107.774 169.406 107.388 169.276 106.722 169.245C103.914 168.943 101.118 168.693 98.3259 168.495C97.8102 168.443 97.2842 168.391 96.7425 168.349C90.5029 167.865 84.2686 167.422 78.0342 167.016C73.3936 166.74 68.7477 166.526 64.0967 166.37C61.9717 166.26 59.8519 166.448 57.7425 166.932C53.5602 167.849 51.1279 170.417 50.4509 174.641C50.2269 176.057 50.1436 177.495 50.2009 178.953C50.2946 180.812 50.5342 182.646 50.9092 184.453C51.2946 186.255 51.7529 188.026 52.2842 189.766C53.6696 194.667 55.7321 199.245 58.4717 203.495C59.8988 205.755 61.6279 207.708 63.6592 209.349C67.1592 212.068 70.9977 212.729 75.18 211.328C77.7061 210.505 80.0186 209.292 82.1175 207.682C85.2686 205.224 88.0759 202.422 90.5342 199.286C95.6592 192.687 100.128 185.661 103.951 178.203C105.201 175.797 106.409 173.391 107.576 170.974ZM128.68 169.745C128.706 169.729 128.722 169.708 128.722 169.682C128.763 169.641 128.795 169.604 128.826 169.578C128.868 169.562 128.857 169.547 128.805 169.536C128.357 155.135 128.722 140.74 129.888 126.349C129.899 125.88 129.894 125.391 129.868 124.891C129.852 124.807 129.815 124.698 129.763 124.557C129.68 124.49 129.623 124.38 129.597 124.224C129.222 125.365 128.831 126.516 128.43 127.682C127.581 130.24 126.722 132.776 125.847 135.286C124.597 138.984 123.295 142.651 121.951 146.286C121.17 148.318 120.388 150.344 119.597 152.37C118.982 153.927 118.378 155.495 117.784 157.078C117.17 158.635 116.513 160.172 115.805 161.682C114.914 163.641 114.086 165.651 113.326 167.703C114.185 167.969 115.623 168.255 117.638 168.557C119.649 168.865 121.711 169.135 123.826 169.37C125.935 169.589 127.555 169.714 128.68 169.745Z" fill="black"/>
</svg>
